<?xml version="1.0" encoding="UTF-8" standalone="no"?>
<!-- Created with Inkscape (http://www.inkscape.org/) -->
<svg
   xmlns:dc="http://purl.org/dc/elements/1.1/"
   xmlns:cc="http://creativecommons.org/ns#"
   xmlns:rdf="http://www.w3.org/1999/02/22-rdf-syntax-ns#"
   xmlns:svg="http://www.w3.org/2000/svg"
   xmlns="http://www.w3.org/2000/svg"
   xmlns:sodipodi="http://sodipodi.sourceforge.net/DTD/sodipodi-0.dtd"
   xmlns:inkscape="http://www.inkscape.org/namespaces/inkscape"
   width="744.09448819"
   height="1052.3622047"
   id="svg2"
   sodipodi:version="0.32"
   inkscape:version="0.46"
   sodipodi:docname="logo.svg"
   inkscape:output_extension="org.inkscape.output.svg.inkscape">
  <defs
     id="defs4">
    <inkscape:perspective
       sodipodi:type="inkscape:persp3d"
       inkscape:vp_x="0 : 526.18109 : 1"
       inkscape:vp_y="0 : 1000 : 0"
       inkscape:vp_z="744.09448 : 526.18109 : 1"
       inkscape:persp3d-origin="372.04724 : 350.78739 : 1"
       id="perspective10" />
  </defs>
  <sodipodi:namedview
     id="base"
     pagecolor="#ffffff"
     bordercolor="#666666"
     borderopacity="1.0"
     gridtolerance="10000"
     guidetolerance="10"
     objecttolerance="10"
     inkscape:pageopacity="0.0"
     inkscape:pageshadow="2"
     inkscape:zoom="0.49497475"
     inkscape:cx="25.713848"
     inkscape:cy="561.84189"
     inkscape:document-units="px"
     inkscape:current-layer="layer1"
     showgrid="false"
     inkscape:window-width="1024"
     inkscape:window-height="727"
     inkscape:window-x="-1"
     inkscape:window-y="0" />
  <metadata
     id="metadata7">
    <rdf:RDF>
      <cc:Work
         rdf:about="">
        <dc:format>image/svg+xml</dc:format>
        <dc:type
           rdf:resource="http://purl.org/dc/dcmitype/StillImage" />
      </cc:Work>
    </rdf:RDF>
  </metadata>
  <g
     inkscape:label="Layer 1"
     inkscape:groupmode="layer"
     id="layer1">
    <path
       style="fill:none;fill-rule:evenodd;stroke:#14f0f6;stroke-width:9;stroke-linecap:round;stroke-linejoin:miter;stroke-opacity:1;stroke-miterlimit:4;stroke-dasharray:none"
       d="M 282.84271,209.89496 L 171.72593,209.89496 C 171.72593,209.89496 139.40105,207.87466 137.38075,240.19954 C 135.36044,272.52442 137.38075,464.4534 137.38075,464.4534 C 137.38075,464.4534 131.31983,500.81889 175.76654,500.81889 C 220.21325,500.81889 448.50773,500.81889 448.50773,500.81889 C 448.50773,500.81889 484.87322,500.81889 484.87322,468.49401 C 484.87322,436.16913 406.08132,207.87466 379.81736,207.87466 C 353.55339,207.87466 265.4862,473.99866 308.50964,473.99866 C 351.53309,473.99866 432.34529,471.97835 446.48742,471.97835 C 460.62956,471.97835 458.60925,451.7753 458.60925,451.7753 L 383.85797,250.30107"
       id="path2383"
       sodipodi:nodetypes="ccscscsssscc" />
    <path
       sodipodi:type="arc"
       style="fill:#00d9ee;fill-opacity:1;stroke:none;stroke-opacity:1"
       id="path2389"
       sodipodi:cx="196.97975"
       sodipodi:cy="267.47366"
       sodipodi:rx="17.172594"
       sodipodi:ry="17.172594"
       d="M 214.15235,267.47366 A 17.172594,17.172594 0 1 1 179.80716,267.47366 A 17.172594,17.172594 0 1 1 214.15235,267.47366 z"
       transform="translate(-6.0609153,-2.0203051)" />
    <path
       sodipodi:type="arc"
       style="fill:#00d9ee;fill-opacity:1;stroke:none;stroke-opacity:1"
       id="path3161"
       sodipodi:cx="196.97975"
       sodipodi:cy="267.47366"
       sodipodi:rx="17.172594"
       sodipodi:ry="17.172594"
       d="M 214.15235,267.47366 A 17.172594,17.172594 0 1 1 179.80716,267.47366 A 17.172594,17.172594 0 1 1 214.15235,267.47366 z"
       transform="translate(51.517774,-3.030466)" />
    <path
       sodipodi:type="arc"
       style="fill:#00d9ee;fill-opacity:1;stroke:none;stroke-opacity:1"
       id="path3163"
       sodipodi:cx="196.97975"
       sodipodi:cy="267.47366"
       sodipodi:rx="17.172594"
       sodipodi:ry="17.172594"
       d="M 214.15235,267.47366 A 17.172594,17.172594 0 1 1 179.80716,267.47366 A 17.172594,17.172594 0 1 1 214.15235,267.47366 z"
       transform="translate(-3.5355368,86.368043)" />
    <path
       sodipodi:type="arc"
       style="fill:#00d9ee;fill-opacity:1;stroke:none;stroke-opacity:1"
       id="path3165"
       sodipodi:cx="196.97975"
       sodipodi:cy="267.47366"
       sodipodi:rx="17.172594"
       sodipodi:ry="17.172594"
       d="M 214.15235,267.47366 A 17.172594,17.172594 0 1 1 179.80716,267.47366 A 17.172594,17.172594 0 1 1 214.15235,267.47366 z"
       transform="translate(54.043153,85.357873)" />
    <path
       sodipodi:type="arc"
       style="fill:#00d9ee;fill-opacity:1;stroke:none;stroke-opacity:1"
       id="path3167"
       sodipodi:cx="196.97975"
       sodipodi:cy="267.47366"
       sodipodi:rx="17.172594"
       sodipodi:ry="17.172594"
       d="M 214.15235,267.47366 A 17.172594,17.172594 0 1 1 179.80716,267.47366 A 17.172594,17.172594 0 1 1 214.15235,267.47366 z"
       transform="translate(-1.5152311,181.32238)" />
    <path
       sodipodi:type="arc"
       style="fill:#00d9ee;fill-opacity:1;stroke:none;stroke-opacity:1"
       id="path3169"
       sodipodi:cx="196.97975"
       sodipodi:cy="267.47366"
       sodipodi:rx="17.172594"
       sodipodi:ry="17.172594"
       d="M 214.15235,267.47366 A 17.172594,17.172594 0 1 1 179.80716,267.47366 A 17.172594,17.172594 0 1 1 214.15235,267.47366 z"
       transform="translate(56.063458,180.31221)" />
  </g>
</svg>
