<?xml version="1.0" encoding="UTF-8" standalone="no"?>
<!-- Created with Inkscape (http://www.inkscape.org/) -->

<svg
   xmlns:dc="http://purl.org/dc/elements/1.1/"
   xmlns:cc="http://creativecommons.org/ns#"
   xmlns:rdf="http://www.w3.org/1999/02/22-rdf-syntax-ns#"
   xmlns:svg="http://www.w3.org/2000/svg"
   xmlns="http://www.w3.org/2000/svg"
   xmlns:sodipodi="http://sodipodi.sourceforge.net/DTD/sodipodi-0.dtd"
   xmlns:inkscape="http://www.inkscape.org/namespaces/inkscape"
   version="1.1"
   width="320"
   height="240"
   id="svg2"
   inkscape:version="0.48.2 r9819"
   sodipodi:docname="b.svg">
  <sodipodi:namedview
     pagecolor="#ffffff"
     bordercolor="#666666"
     borderopacity="1"
     objecttolerance="10"
     gridtolerance="10"
     guidetolerance="10"
     inkscape:pageopacity="0"
     inkscape:pageshadow="2"
     inkscape:window-width="1024"
     inkscape:window-height="712"
     id="namedview3153"
     showgrid="false"
     inkscape:snap-global="true"
     inkscape:zoom="0.98333333"
     inkscape:cx="-33.728814"
     inkscape:cy="38.644068"
     inkscape:window-x="0"
     inkscape:window-y="0"
     inkscape:window-maximized="1"
     inkscape:current-layer="svg2" />
  <defs
     id="defs4" />
  <metadata
     id="metadata7">
    <rdf:RDF>
      <cc:Work
         rdf:about="">
        <dc:format>image/svg+xml</dc:format>
        <dc:type
           rdf:resource="http://purl.org/dc/dcmitype/StillImage" />
        <dc:title></dc:title>
        <cc:license
           rdf:resource="http://creativecommons.org/licenses/by-sa/3.0/" />
      </cc:Work>
      <cc:License
         rdf:about="http://creativecommons.org/licenses/by-sa/3.0/">
        <cc:permits
           rdf:resource="http://creativecommons.org/ns#Reproduction" />
        <cc:permits
           rdf:resource="http://creativecommons.org/ns#Distribution" />
        <cc:requires
           rdf:resource="http://creativecommons.org/ns#Notice" />
        <cc:requires
           rdf:resource="http://creativecommons.org/ns#Attribution" />
        <cc:permits
           rdf:resource="http://creativecommons.org/ns#DerivativeWorks" />
        <cc:requires
           rdf:resource="http://creativecommons.org/ns#ShareAlike" />
      </cc:License>
    </rdf:RDF>
  </metadata>
  <g
     transform="translate(0,-812.36218)"
     id="layer1">
    <path
       d="m 3.9438004,857.33422 c 0,0 37.4115386,-24.157 57.1095136,-23.28427 20.44644,0.90589 -28.284272,98.10472 5.555839,157.70375"
       id="path3001"
       style="fill:none;stroke:#000000;stroke-width:1px;stroke-linecap:butt;stroke-linejoin:miter;stroke-opacity:1"
       inkscape:connector-curvature="0" />
    <path
       d="m 58.527932,891.12357 c 0,0 33.840111,-13.63706 43.436558,-14.64721 9.59645,-1.01016 -3.53553,71.72083 -3.53553,71.72083 0,0 -1.010155,-33.84011 30.80965,-61.11423 31.81981,-27.27412 34.34519,-19.1929 36.87057,-15.65736 2.52538,3.53553 -18.68782,74.75128 -10.6066,77.27666 8.08122,2.52539 15.15228,-7.07106 15.15228,-7.07106"
       id="path3003"
       style="fill:none;stroke:#000000;stroke-width:1px;stroke-linecap:butt;stroke-linejoin:miter;stroke-opacity:1"
       inkscape:connector-curvature="0" />
    <path
       d="m 153.48227,835.56518 c 6.56599,-0.50507 22.22336,7.07106 23.73858,16.16244"
       id="path3005"
       style="fill:none;stroke:#000000;stroke-width:1px;stroke-linecap:butt;stroke-linejoin:miter;stroke-opacity:1"
       inkscape:connector-curvature="0" />
    <path
       d="m 191.36299,872.94082 c 0,0 2.52538,-8.08122 9.09138,-12.6269 6.56599,-4.54569 -0.0385,102.0215 1.51522,86.87312 2.02031,-19.69798 0.54792,-85.34656 24.74874,-86.87312 18.68081,-1.17837 39.69445,84.32499 42.72491,136.34788"
       id="path3026"
       style="fill:none;stroke:#000000;stroke-width:1px;stroke-linecap:butt;stroke-linejoin:miter;stroke-opacity:1"
       inkscape:connector-curvature="0" />
    <path
       d="m 296.92393,834.55503 c 0,0 -60.10891,139.15657 -80.18086,154.93217"
       id="path3028"
       style="fill:none;stroke:#000000;stroke-width:1px;stroke-linecap:butt;stroke-linejoin:miter;stroke-opacity:1"
       inkscape:connector-curvature="0" />
    <path
       d="m 13.576144,995.6744 c 8.057944,-2.0257 16.116833,-4.1469 24.525044,-3.5356 20.187457,0.1466 40.433428,-0.3024 60.581192,0.2419 11.99887,1.3131 24.27481,0.7457 36.36848,0.5485 12.92763,-1.5686 25.81867,-3.2539 38.91585,-2.8107 14.32785,0.048 28.65006,0.074 42.93148,-0.5051 7.49952,0.4324 15.47876,-1.1674 22.44705,1.5153 5.06177,1.271 10.9013,-0.5115 15.65736,1.5152 9.01669,2.9679 18.27425,6.2453 28.03043,6.0948 8.72149,0.853 16.8569,-2.3618 25.32857,-3.4994 -2.79948,0.3294 5.37418,-2.1064 5.73493,-2.5954"
       id="path3030"
       style="fill:none;stroke:#000000;stroke-width:1px;stroke-linecap:butt;stroke-linejoin:miter;stroke-opacity:1"
       inkscape:connector-curvature="0" />
    <g
       id="text3034"
       style="font-size:10px;font-style:normal;font-weight:normal;line-height:125%;letter-spacing:0px;word-spacing:0px;fill:#000000;fill-opacity:1;stroke:none;font-family:Sans">
      <path
         d="m 19.720255,1019.5079 -2.491317,0.5099 -4.008178,-19.5823 11.264502,-2.30562 0.449618,2.19662 -8.773185,1.7958 1.414651,6.9113 8.264206,-1.6915 0.449618,2.1966 -8.264206,1.6916 1.694291,8.2776"
         id="path3087"
         style="font-size:28px;font-style:normal;font-variant:normal;font-weight:normal;font-stretch:normal;font-family:'文泉驿等宽微米黑';-inkscape-font-specification:'文泉驿等宽微米黑'"
         inkscape:connector-curvature="0" />
      <path
         d="m 35.476688,1009.2121 0.06938,8.2576 -2.55655,0.021 -0.167945,-19.98753 4.880687,-0.041 c 4.739404,-0.0398 7.125001,1.83149 7.156797,5.61393 0.02196,2.6158 -1.280035,4.4132 -3.906002,5.3923 l 5.502784,8.9092 -2.994035,0.025 -4.85437,-8.2174 -3.130749,0.026 m -0.01815,-2.16 2.242108,-0.019 c 1.55853,-0.013 2.704399,-0.3235 3.437609,-0.9312 0.73319,-0.6078 1.094276,-1.5679 1.08326,-2.8803 -0.01081,-1.2851 -0.383153,-2.2072 -1.117031,-2.7661 -0.733899,-0.55897 -1.912011,-0.83163 -3.534341,-0.81801 l -2.173752,0.0183 0.06215,7.39621"
         id="path3089"
         style="font-size:28px;font-style:normal;font-variant:normal;font-weight:normal;font-stretch:normal;font-family:'文泉驿等宽微米黑';-inkscape-font-specification:'文泉驿等宽微米黑'"
         inkscape:connector-curvature="0" />
      <path
         d="m 60.920802,1017.4437 -10.609339,0.028 -0.0044,-1.6816 4.032476,-0.284 -0.04198,-16.07807 -4.033903,-0.26291 -0.0044,-1.68163 10.609339,-0.0277 0.0044,1.68163 -4.018803,0.28393 0.04198,16.07805 4.020232,0.263 0.0044,1.6816"
         id="path3091"
         style="font-size:28px;font-style:normal;font-variant:normal;font-weight:normal;font-stretch:normal;font-family:'文泉驿等宽微米黑';-inkscape-font-specification:'文泉驿等宽微米黑'"
         inkscape:connector-curvature="0" />
      <path
         d="m 78.954053,1017.4009 -2.939453,0 -7.940112,-16.5379 -0.109375,0 c 0.16565,2.5247 0.248878,4.425 0.249687,5.701 l 0.0068,10.8418 -2.351562,0 -0.0126,-19.98826 2.912109,-0.002 7.912717,16.45596 0.08203,-10e-5 c -0.129357,-2.7616 -0.19432,-4.6027 -0.194887,-5.5233 l -0.0069,-10.93747 2.378906,-10e-4 0.0126,19.98827"
         id="path3093"
         style="font-size:28px;font-style:normal;font-variant:normal;font-weight:normal;font-stretch:normal;font-family:'文泉驿等宽微米黑';-inkscape-font-specification:'文泉驿等宽微米黑'"
         inkscape:connector-curvature="0" />
      <path
         d="m 96.863347,1017.5901 -2.884504,-0.039 -4.736296,-8.7461 -5.120234,8.6136 -2.583751,-0.035 6.333304,-10.3611 -5.640642,-9.61968 2.720457,0.0366 4.422177,7.70278 4.668798,-7.58048 2.611092,0.0351 -5.896274,9.38248 6.105873,10.6105"
         id="path3095"
         style="font-size:28px;font-style:normal;font-variant:normal;font-weight:normal;font-stretch:normal;font-family:'文泉驿等宽微米黑';-inkscape-font-specification:'文泉驿等宽微米黑'"
         inkscape:connector-curvature="0" />
      <path
         d="m 123.42554,1007.9137 5.76914,-0.067 0.11366,9.8021 c -1.76931,0.7042 -3.67928,1.0681 -5.72991,1.0919 -2.38787,0.028 -4.26675,-0.8575 -5.63664,-2.6555 -1.36089,-1.8073 -2.06004,-4.3241 -2.09745,-7.5504 -0.0371,-3.199 0.67207,-5.7139 2.12751,-7.5447 1.45532,-1.83994 3.47717,-2.7749 6.06554,-2.80493 1.74987,-0.0203 3.33113,0.35334 4.74378,1.12085 l -0.95862,2.22608 c -1.33953,-0.7501 -2.61993,-1.1181 -3.84119,-1.1039 -1.74989,0.02 -3.10418,0.7469 -4.06288,2.18 -0.95882,1.424 -1.42359,3.3983 -1.39432,5.9228 0.0621,5.3591 1.88866,8.0177 5.47957,7.9761 0.88404,-0.01 1.80302,-0.1531 2.75693,-0.4285 l -0.0691,-5.9605 -3.24002,0.038 -0.026,-2.2421"
         id="path3097"
         style="font-size:28px;font-style:normal;font-variant:normal;font-weight:normal;font-stretch:normal;font-family:'文泉驿等宽微米黑';-inkscape-font-specification:'文泉驿等宽微米黑'"
         inkscape:connector-curvature="0" />
      <path
         d="m 144.82155,1017.2511 -2.53077,-5.9857 -6.68437,0.6182 -1.41722,6.3509 -2.58662,0.2392 4.72705,-20.59317 2.65468,-0.24553 8.45109,19.3743 -2.61384,0.2418 m -3.46006,-8.1653 -2.3445,-5.6047 c -0.45806,-1.0927 -0.83426,-2.0922 -1.12862,-2.9987 -0.0984,0.9153 -0.23036,1.7651 -0.39581,2.5492 l -1.37237,6.539 5.2413,-0.4848"
         id="path3099"
         style="font-size:28px;font-style:normal;font-variant:normal;font-weight:normal;font-stretch:normal;font-family:'文泉驿等宽微米黑';-inkscape-font-specification:'文泉驿等宽微米黑'"
         inkscape:connector-curvature="0" />
      <path
         d="m 155.08747,1016.0482 -5.1607,-17.14826 -0.10904,0.009 c 0.35358,2.40416 0.58038,4.24226 0.6804,5.51436 l 0.93655,11.9125 -2.0581,0.1618 -1.56664,-19.92676 3.36656,-0.26468 4.65751,15.98094 0.0818,-0.01 2.13014,-16.51462 3.43471,-0.27003 1.56665,19.92675 -2.08537,0.164 -0.95048,-12.0897 c -0.0729,-0.9268 -0.14894,-2.7082 -0.22817,-5.34422 l -0.10904,0.009 -2.48777,17.72212 -2.09899,0.165"
         id="path3101"
         style="font-size:28px;font-style:normal;font-variant:normal;font-weight:normal;font-stretch:normal;font-family:'文泉驿等宽微米黑';-inkscape-font-specification:'文泉驿等宽微米黑'"
         inkscape:connector-curvature="0" />
      <path
         d="m 179.06053,1015.3742 -11.51172,0.01 -0.0169,-19.98826 11.51172,-0.01 0.002,2.24218 -8.96875,0.008 0.005,6.17968 8.43555,-0.01 0.002,2.2149 -8.43555,0.01 0.006,7.1094 8.96875,-0.01 0.002,2.2422"
         id="path3103"
         style="font-size:28px;font-style:normal;font-variant:normal;font-weight:normal;font-stretch:normal;font-family:'文泉驿等宽微米黑';-inkscape-font-specification:'文泉驿等宽微米黑'"
         inkscape:connector-curvature="0" />
      <path
         d="m 212.63533,1015.1105 -11.50885,0.2567 -0.4456,-19.98336 11.50886,-0.25663 0.05,2.24163 -8.96653,0.19994 0.13777,6.17812 8.43345,-0.188 0.0494,2.2143 -8.43345,0.188 0.15849,7.1076 8.96652,-0.1999 0.05,2.2416"
         id="path3105"
         style="font-size:28px;font-style:normal;font-variant:normal;font-weight:normal;font-stretch:normal;font-family:'文泉驿等宽微米黑';-inkscape-font-specification:'文泉驿等宽微米黑'"
         inkscape:connector-curvature="0" />
      <path
         d="m 229.86963,1014.9041 -2.93938,0.02 -8.04289,-16.48824 -0.10937,7.5e-4 c 0.18136,2.52359 0.27641,4.42339 0.28516,5.69939 l 0.0743,10.8415 -2.35151,0.016 -0.13699,-19.98779 2.91204,-0.02 8.01498,16.40639 0.082,-5e-4 c -0.14655,-2.7608 -0.22297,-4.6015 -0.22926,-5.522 l -0.075,-10.9373 2.37885,-0.0163 0.13699,19.9878"
         id="path3107"
         style="font-size:28px;font-style:normal;font-variant:normal;font-weight:normal;font-stretch:normal;font-family:'文泉驿等宽微米黑';-inkscape-font-specification:'文泉驿等宽微米黑'"
         inkscape:connector-curvature="0" />
      <path
         d="m 241.9933,1006.0819 5.72766,0.6939 -1.17887,9.7316 c -1.84667,0.4649 -3.78794,0.574 -5.82383,0.3274 -2.37069,-0.2872 -4.11656,-1.4122 -5.23759,-3.3751 -1.1109,-1.9708 -1.47234,-4.5578 -1.08431,-7.7609 0.38473,-3.176 1.41908,-5.5756 3.10306,-7.19865 1.68506,-1.6321 3.81247,-2.29251 6.38224,-1.98123 1.73728,0.21047 3.25553,0.78918 4.55474,1.73613 l -1.24359,2.08035 c -1.22901,-0.92004 -2.44975,-1.45353 -3.66223,-1.60043 -1.73731,-0.21044 -3.17555,0.33147 -4.31472,1.62573 -1.13808,1.2852 -1.85893,3.1811 -2.16255,5.6875 -0.64452,5.3204 0.81576,8.1966 4.38085,8.6285 0.87769,0.1063 1.80747,0.086 2.78936,-0.062 l 0.71686,-5.9177 -3.21672,-0.3896 0.26964,-2.226"
         id="path3109"
         style="font-size:28px;font-style:normal;font-variant:normal;font-weight:normal;font-stretch:normal;font-family:'文泉驿等宽微米黑';-inkscape-font-specification:'文泉驿等宽微米黑'"
         inkscape:connector-curvature="0" />
      <path
         d="m 261.64453,1019.549 -10.30581,-2.5198 0.3994,-1.6335 3.98274,0.6923 3.81861,-15.6181 -3.85286,-1.22348 0.3994,-1.63352 10.30581,2.5198 -0.3994,1.6335 -3.96946,-0.6891 -3.81861,15.6181 3.83957,1.2203 -0.39939,1.6335"
         id="path3111"
         style="font-size:28px;font-style:normal;font-variant:normal;font-weight:normal;font-stretch:normal;font-family:'文泉驿等宽微米黑';-inkscape-font-specification:'文泉驿等宽微米黑'"
         inkscape:connector-curvature="0" />
      <path
         d="m 279.04719,1024.1718 -2.88719,-0.5519 -4.68293,-17.7375 -0.10743,-0.02 c -0.31285,2.5106 -0.58906,4.3926 -0.82861,5.646 l -2.03543,10.649 -2.30975,-0.4415 3.75258,-19.6329 2.86033,0.5468 4.67147,17.6518 0.0806,0.015 c 0.39314,-2.7366 0.67612,-4.557 0.84896,-5.4612 l 2.0534,-10.743 2.3366,0.4466 -3.75257,19.6329"
         id="path3113"
         style="font-size:28px;font-style:normal;font-variant:normal;font-weight:normal;font-stretch:normal;font-family:'文泉驿等宽微米黑';-inkscape-font-specification:'文泉驿等宽微米黑'"
         inkscape:connector-curvature="0" />
      <path
         d="m 295.4004,1023.6089 -11.47941,0.8619 -1.49667,-19.9321 11.47941,-0.862 0.16788,2.2359 -8.94357,0.6716 0.46272,6.1623 8.41187,-0.6316 0.16584,2.2086 -8.41187,0.6316 0.53233,7.0894 8.94358,-0.6715 0.16789,2.2359"
         id="path3115"
         style="font-size:28px;font-style:normal;font-variant:normal;font-weight:normal;font-stretch:normal;font-family:'文泉驿等宽微米黑';-inkscape-font-specification:'文泉驿等宽微米黑'"
         inkscape:connector-curvature="0" />
    </g>
  </g>
</svg>
